<svg width="24" height="24" viewBox="0 0 24 24" fill="none" xmlns="http://www.w3.org/2000/svg">
<path d="M16.6813 6.49756H7.27588V8.76821H10.8433V12.1057H13.1139V8.76821H16.6813V6.49756Z" fill="#1BA27A"/>
<path d="M12.0001 12.4621C9.04899 12.4621 6.65646 11.995 6.65646 11.4188C6.65646 10.8427 9.0489 10.3756 12.0001 10.3756C14.9511 10.3756 17.3435 10.8427 17.3435 11.4188C17.3435 11.995 14.9511 12.4621 12.0001 12.4621ZM18 11.5928C18 10.8498 15.3138 10.2476 12.0001 10.2476C8.68644 10.2476 6 10.8498 6 11.5928C6 12.247 8.08302 12.7922 10.8433 12.9129V17.704H13.1137V12.9148C15.8952 12.7978 18 12.2504 18 11.5928Z" fill="#1BA27A"/>
<circle cx="12" cy="12" r="12" fill="#2775CA"/>
<path fill-rule="evenodd" clip-rule="evenodd" d="M10.3133 17.8564C10.3133 18.068 10.1475 18.1882 9.94285 18.1243C7.22241 17.2565 5.25 14.7056 5.25 11.6957C5.25 8.68588 7.22241 6.13486 9.94285 5.267C10.1475 5.20351 10.3133 5.32334 10.3133 5.53499V6.05746C10.3133 6.19835 10.2041 6.3642 10.0698 6.4101C7.91748 7.20046 6.37562 9.26817 6.37562 11.6921C6.37562 14.116 7.91748 16.1841 10.0698 16.9741C10.2041 17.0236 10.3133 17.1857 10.3133 17.3271V17.8564Z" fill="white"/>
<path fill-rule="evenodd" clip-rule="evenodd" d="M12.5611 15.9107C12.5611 16.0661 12.4341 16.1931 12.2789 16.1931H11.7178C11.5626 16.1931 11.4356 16.0661 11.4356 15.9107V15.0217C10.2077 14.8559 9.60799 14.1677 9.44562 13.2328C9.4173 13.0738 9.54429 12.9292 9.70665 12.9292H10.3489C10.4829 12.9292 10.5959 13.0246 10.6241 13.1584C10.7441 13.716 11.0652 14.143 12.0495 14.143C12.7764 14.143 13.2917 13.7371 13.2917 13.1305C13.2917 12.5234 12.9881 12.2942 11.9225 12.1176C10.3489 11.9059 9.60441 11.4295 9.60441 10.1945C9.60441 9.24193 10.3243 8.50106 11.4392 8.34217V7.47063C11.4392 7.31532 11.5663 7.18823 11.7214 7.18823H12.2825C12.4377 7.18823 12.5647 7.31532 12.5647 7.47063V8.36692C13.4715 8.52949 14.0467 9.04429 14.2338 9.89814C14.2689 10.0607 14.1419 10.2121 13.9762 10.2121H13.3833C13.2563 10.2121 13.1505 10.1274 13.1117 10.004C12.9529 9.46084 12.5647 9.22803 11.8907 9.22803C11.1463 9.22803 10.7616 9.58783 10.7616 10.0923C10.7616 10.6251 10.9805 10.8931 12.1238 11.0592C13.6691 11.2709 14.4667 11.7119 14.4667 13.0283C14.4667 14.0267 13.7256 14.8347 12.5647 15.0217V15.9107H12.5611Z" fill="white"/>
<path fill-rule="evenodd" clip-rule="evenodd" d="M14.0566 18.1258C13.8521 18.1897 13.6862 18.0695 13.6862 17.8578V17.3358C13.6862 17.1804 13.7814 17.0359 13.9296 16.9827C16.082 16.1923 17.6238 14.1246 17.6238 11.7007C17.6238 9.27678 16.082 7.20907 13.9296 6.41872C13.7956 6.36923 13.6862 6.20707 13.6862 6.06567V5.5436C13.6862 5.33195 13.8521 5.20854 14.0566 5.27521C16.777 6.14358 18.7494 8.69449 18.7494 11.7043C18.7461 14.7069 16.777 17.2544 14.0566 18.1258Z" fill="white"/>
</svg>
