<svg width="24" height="24" viewBox="0 0 24 24" fill="none" xmlns="http://www.w3.org/2000/svg">
<path d="M16.6813 5.74805H7.27588V8.0187H10.8433V11.3561H13.1139V8.0187H16.6813V5.74805Z" fill="#1BA27A"/>
<path d="M12.0001 11.7126C9.04899 11.7126 6.65646 11.2455 6.65646 10.6693C6.65646 10.0932 9.0489 9.62608 12.0001 9.62608C14.9511 9.62608 17.3435 10.0932 17.3435 10.6693C17.3435 11.2455 14.9511 11.7126 12.0001 11.7126ZM18 10.8433C18 10.1003 15.3138 9.49805 12.0001 9.49805C8.68644 9.49805 6 10.1003 6 10.8433C6 11.4975 8.08302 12.0426 10.8433 12.1634V16.9545H13.1137V12.1653C15.8952 12.0483 18 11.5009 18 10.8433Z" fill="#1BA27A"/>
<circle cx="12" cy="12" r="12" fill="#1BA27A"/>
<path d="M16.6813 5.74805H7.27588V8.0187H10.8433V11.3561H13.1139V8.0187H16.6813V5.74805Z" fill="white"/>
<path d="M12.0001 11.7126C9.04899 11.7126 6.65646 11.2455 6.65646 10.6693C6.65646 10.0932 9.0489 9.62608 12.0001 9.62608C14.9511 9.62608 17.3435 10.0932 17.3435 10.6693C17.3435 11.2455 14.9511 11.7126 12.0001 11.7126ZM18 10.8433C18 10.1003 15.3138 9.49805 12.0001 9.49805C8.68644 9.49805 6 10.1003 6 10.8433C6 11.4975 8.08302 12.0426 10.8433 12.1634V16.9545H13.1137V12.1653C15.8952 12.0483 18 11.5009 18 10.8433Z" fill="white"/>
</svg>
